<svg xmlns="http://www.w3.org/2000/svg" xmlns:xlink="http://www.w3.org/1999/xlink" width="149.803" height="66.026" viewBox="0 0 149.803 66.026">
  <defs>
    <clipPath id="clip-path">
      <rect id="Rettangolo_1789" data-name="Rettangolo 1789" width="149.803" height="66.026" transform="translate(0)" fill="none"/>
    </clipPath>
  </defs>
  <g id="Raggruppa_1431" data-name="Raggruppa 1431" transform="translate(-84.74 -194.064)">
    <g id="Raggruppa_1430" data-name="Raggruppa 1430" transform="translate(84.74 194.064)" clip-path="url(#clip-path)">
      <path id="Tracciato_1254" data-name="Tracciato 1254" d="M165.189,339.279a3.673,3.673,0,0,0-2.189-.547,3.111,3.111,0,0,0-.054,6.22,4.639,4.639,0,0,0,1.275-.137V342.4h-1.675v-.934h2.814V345.6a7.272,7.272,0,0,1-2.427.352,3.916,3.916,0,0,1-4.193-4.146,3.965,3.965,0,0,1,4.206-4.078,5.98,5.98,0,0,1,2.335.4Z" transform="translate(-158.74 -279.928)" fill="#161615"/>
      <path id="Tracciato_1255" data-name="Tracciato 1255" d="M183.151,338.035H185.1c1.572,0,3.087.252,3.087,2.153A1.852,1.852,0,0,1,186.545,342v.022c.356.137.524.309.775.8l1.507,3.169h-1.3l-1.22-2.757c-.352-.774-.728-.774-1.331-.774h-.686v3.532h-1.138Zm1.138,3.417h.969c1.084,0,1.721-.478,1.721-1.242,0-.72-.547-1.174-1.595-1.174h-1.1Z" transform="translate(-172.185 -280.096)" fill="#161615"/>
      <path id="Tracciato_1256" data-name="Tracciato 1256" d="M210.336,342.694c0,2.231-1.128,3.428-3.088,3.428s-3.089-1.2-3.089-3.428v-4.66H205.3v4.51c0,1.529.475,2.576,1.947,2.576s1.947-1.047,1.947-2.576v-4.51h1.141Z" transform="translate(-183.755 -280.095)" fill="#161615"/>
      <path id="Tracciato_1257" data-name="Tracciato 1257" d="M227.624,338.034h2.087c1.626,0,2.983.569,2.983,2.381,0,1.766-1.378,2.39-2.814,2.39h-1.115v3.181h-1.14Zm1.14,3.771h1.128a1.431,1.431,0,0,0,1.595-1.4c0-1-1.049-1.367-1.754-1.367h-.969Z" transform="translate(-196.678 -280.095)" fill="#161615"/>
      <path id="Tracciato_1258" data-name="Tracciato 1258" d="M247.063,338.034h2.087c1.625,0,2.983.569,2.983,2.381,0,1.766-1.378,2.39-2.814,2.39H248.2v3.181h-1.141ZM248.2,341.8h1.127a1.43,1.43,0,0,0,1.594-1.4c0-1-1.047-1.367-1.752-1.367H248.2Z" transform="translate(-207.385 -280.095)" fill="#161615"/>
      <path id="Tracciato_1259" data-name="Tracciato 1259" d="M269.572,337.729c2.414,0,3.828,1.755,3.828,4.112,0,2.417-1.4,4.112-3.828,4.112s-3.828-1.695-3.828-4.112c0-2.357,1.411-4.112,3.828-4.112m0,7.223c1.832,0,2.618-1.527,2.618-3.111,0-1.616-.864-3.12-2.618-3.109-1.757-.011-2.621,1.493-2.621,3.109,0,1.585.785,3.111,2.621,3.111" transform="translate(-217.673 -279.927)" fill="#161615"/>
      <path id="Tracciato_1260" data-name="Tracciato 1260" d="M303.959,338.035h2.154c1.652,0,2.792.535,2.792,2.007a1.84,1.84,0,0,1-1.642,1.888v.022a1.862,1.862,0,0,1,1.845,1.916c0,1.708-1.411,2.118-3.031,2.118h-2.118Zm1.14,3.394h.626c1.1,0,2.04-.1,2.04-1.276,0-.945-.811-1.184-1.469-1.184h-1.2Zm0,3.623h.855c1.025,0,1.947-.216,1.947-1.287,0-1.23-1.083-1.4-2.062-1.4h-.74Z" transform="translate(-238.721 -280.096)" fill="#161615"/>
      <path id="Tracciato_1261" data-name="Tracciato 1261" d="M326.386,338.035h1.2l3.361,7.952H329.7l-.81-2.006H325l-.811,2.006h-1.194Zm.56,1.07-1.581,3.942h3.167Z" transform="translate(-249.204 -280.096)" fill="#161615"/>
      <path id="Tracciato_1262" data-name="Tracciato 1262" d="M348.565,338.034h1.549l3.508,6.4h.026v-6.4h1.137v7.952h-1.457l-3.6-6.539H349.7v6.539h-1.14Z" transform="translate(-263.288 -280.095)" fill="#161615"/>
      <path id="Tracciato_1263" data-name="Tracciato 1263" d="M377.226,339.177a3.2,3.2,0,0,0-1.639-.444,3.111,3.111,0,0,0-.058,6.22,3.887,3.887,0,0,0,1.732-.389l.071,1.106a4.975,4.975,0,0,1-1.815.284,3.915,3.915,0,0,1-4.189-4.145,3.962,3.962,0,0,1,4.2-4.079,4.41,4.41,0,0,1,1.789.341Z" transform="translate(-275.824 -279.928)" fill="#161615"/>
      <path id="Tracciato_1264" data-name="Tracciato 1264" d="M395.986,337.729c2.415,0,3.828,1.755,3.828,4.112,0,2.417-1.4,4.112-3.828,4.112s-3.828-1.695-3.828-4.112c0-2.357,1.41-4.112,3.828-4.112m0,7.223c1.833,0,2.617-1.527,2.617-3.111,0-1.616-.862-3.12-2.617-3.109-1.757-.011-2.62,1.493-2.62,3.109,0,1.585.784,3.111,2.62,3.111" transform="translate(-287.297 -279.927)" fill="#161615"/>
      <path id="Tracciato_1265" data-name="Tracciato 1265" d="M430.37,338.035h2.154c1.652,0,2.792.535,2.792,2.007a1.839,1.839,0,0,1-1.642,1.888v.022a1.863,1.863,0,0,1,1.846,1.916c0,1.708-1.41,2.118-3.031,2.118H430.37Zm1.142,3.394h.626c1.106,0,2.039-.1,2.039-1.276,0-.945-.81-1.184-1.468-1.184h-1.2Zm0,3.623h.854c1.026,0,1.948-.216,1.948-1.287,0-1.23-1.083-1.4-2.062-1.4h-.74Z" transform="translate(-308.342 -280.096)" fill="#161615"/>
      <path id="Tracciato_1266" data-name="Tracciato 1266" d="M451.2,338.034h2.088c1.627,0,2.982.569,2.982,2.381,0,1.766-1.378,2.39-2.814,2.39h-1.115v3.181H451.2Zm1.141,3.771h1.128a1.431,1.431,0,0,0,1.6-1.4c0-1-1.049-1.367-1.754-1.367h-.969Z" transform="translate(-319.816 -280.095)" fill="#161615"/>
      <path id="Tracciato_1267" data-name="Tracciato 1267" d="M470.82,338.034H472.7l2.495,6.607,2.45-6.607h1.881v7.952h-1.138V339.1h-.025l-2.631,6.882h-1.114l-2.634-6.882h-.022v6.882H470.82Z" transform="translate(-330.621 -280.095)" fill="#161615"/>
      <path id="Tracciato_1268" data-name="Tracciato 1268" d="M230.181,278.046l.063-.248c.878-1.616,2.634-1.746,4.421-1.746,4.138,0,4.957,2.876,4.957,6.562v9.019H236.8v-8.662c0-2.588-.1-4.332-2.983-4.332-3.637,0-3.637,3.3-3.637,6.044v6.95H227.36V276.506h2.821Z" transform="translate(-196.533 -245.959)" fill="#006747"/>
      <path id="Tracciato_1269" data-name="Tracciato 1269" d="M268.729,280.777c-1.164-1.325-2.586-2.65-4.331-2.655a5.546,5.546,0,0,0-5.785,5.795c0,3.1,2.908,5.367,5.979,5.367,1.681,0,3.038-1.395,4.137-2.623v3.468c-1.324.857-2.862,1.869-4.169,1.869-4.461,0-8.61-3.426-8.61-7.949,0-5.445,3.714-8.284,8.277-8.27a8.9,8.9,0,0,1,4.5,1.373Z" transform="translate(-212.279 -245.807)" fill="#006747"/>
      <path id="Tracciato_1270" data-name="Tracciato 1270" d="M386.362,269.471l5.3-5.436h3.847l-6.081,6.513,7.36,8.856h-3.783l-5.645-6.886-1,1v5.882h-2.911V257.593l2.911-3.742Z" transform="translate(-282.502 -233.731)" fill="#006747"/>
      <path id="Tracciato_1271" data-name="Tracciato 1271" d="M477.668,278.7a4.5,4.5,0,0,0-4.138-2.651,4.414,4.414,0,0,0-4.459,4.4c0,2.068,1.227,2.909,2.908,3.814l2.845,1.52a1.829,1.829,0,0,1,1.067,1.649,2.171,2.171,0,0,1-2.3,2.133c-1.391,0-2.622-1.288-3.236-2.421l-2.489,1.133a6.736,6.736,0,0,0,5.726,3.872,5.077,5.077,0,0,0,5.2-5.009c0-2.393-1.713-3.49-3.489-4.3s-3.526-1.389-3.526-2.714a1.569,1.569,0,0,1,1.585-1.487,2.243,2.243,0,0,1,1.941,1.325Z" transform="translate(-328.996 -245.959)" fill="#006747"/>
      <path id="Tracciato_1272" data-name="Tracciato 1272" d="M417.968,278.663l-.123-.248a3.263,3.263,0,0,1,3.261-2.155,4.261,4.261,0,0,1,2.526.561l-1.187,2.416a2.514,2.514,0,0,0-1.777-.575c-3.135,0-2.728,4.478-2.706,6.014v7.063h-2.908V276.612h2.908Z" transform="translate(-299.907 -246.065)" fill="#006747"/>
      <path id="Tracciato_1273" data-name="Tracciato 1273" d="M308.281,233.983l2.283,5.023h1.619l-6.8-14.971-5.769,13.013h1.619l1.378-3.065Zm-.624-1.327h-4.3l2.148-5.146Zm-9.439-1.139-3.208,4.488.81,1.4,9.565-13.373-14.154,1.511.81,1.4,3.343-.339Zm.837-1.2-2.147-3.72,5.53-.712Zm-3.733-8.743-5.492-.534-.809,1.4,16.364,1.6L297,212.532l-.809,1.4,1.964,2.726Zm1.462.122,2.147-3.72,3.383,4.433Zm5.705-7.6-2.283-5.023h-1.618l6.8,14.971,5.77-13.013h-1.618l-1.379,3.065Zm.624,1.327h4.3l-2.147,5.146Zm9.438,1.138,3.211-4.487-.81-1.4-9.568,13.372,14.155-1.509-.809-1.4-3.343.34Zm-.837,1.205,2.149,3.72-5.531.713Zm3.734,8.744,5.492.535.809-1.4-16.364-1.6,8.385,11.5.809-1.4-1.965-2.726Zm-1.46-.123-2.149,3.72-3.382-4.432Z" transform="translate(-230.494 -209.064)" fill="#00573c"/>
      <path id="Tracciato_1274" data-name="Tracciato 1274" d="M161.868,259.2h.865c2.93,0,5.328.582,5.328,4.009,0,3.491-2.43,4.072-5.394,4.072h-.8Zm0,10.505H163.8c2.8,0,6.392.71,6.392,4.136,0,3.46-3.029,4.3-5.926,4.3h-2.4Zm-3.128,11.151H164.6c4.428,0,8.723-1.94,8.723-6.82a6.315,6.315,0,0,0-5.028-6.173V267.8a5.21,5.21,0,0,0,2.7-4.622c0-5.5-4.461-6.691-9.188-6.691H158.74Z" transform="translate(-158.74 -235.18)" fill="#006747"/>
      <path id="Tracciato_1275" data-name="Tracciato 1275" d="M440.024,276.054a8.048,8.048,0,1,0,8.082,8.049,7.956,7.956,0,0,0-8.082-8.049m0,2.78a5.27,5.27,0,1,1-5.172,5.27,5.228,5.228,0,0,1,5.172-5.27" transform="translate(-309.209 -245.959)" fill="#006747"/>
      <path id="Tracciato_1276" data-name="Tracciato 1276" d="M204.311,283.69c0-2.942-1.873-5.46-4.915-5.46a5.04,5.04,0,0,0-5.022,5.242c.108,3.385,1.528,5.9,4.814,6.093,3.068.182,5.123-2.9,5.123-5.874m2.253-7.184h-2.822v1.778h-.063c-1.16-1.81-3.249-2.231-5.079-2.231-4.608,0-6.942,3.783-7.053,7.918a7.527,7.527,0,0,0,7.147,7.93,5.552,5.552,0,0,0,4.985-2.133l.063-.5v2.361h2.822Z" transform="translate(-176.807 -245.959)" fill="#006747" fill-rule="evenodd"/>
      <path id="Tracciato_1277" data-name="Tracciato 1277" d="M297.9,283.69c0-2.942-1.873-5.46-4.913-5.46a5.04,5.04,0,0,0-5.023,5.242c.108,3.385,1.528,5.9,4.814,6.093,3.067.182,5.122-2.9,5.122-5.874m2.253-7.184h-2.823v1.778h-.063c-1.16-1.81-3.249-2.231-5.079-2.231-4.608,0-6.942,3.783-7.054,7.918a7.527,7.527,0,0,0,7.147,7.93,5.552,5.552,0,0,0,4.985-2.133l.063-.5v2.361h2.823Z" transform="translate(-228.349 -245.959)" fill="#006747" fill-rule="evenodd"/>
      <path id="Tracciato_1278" data-name="Tracciato 1278" d="M339.129,270.131h8.076l-4.018-9.391Zm9.434,3.345,2.7,6.11h3.167L343.139,254.18l-11.287,25.406h3.167l2.96-6.834,10.219-.026Z" transform="translate(-254.083 -233.912)" fill="#006747" fill-rule="evenodd"/>
    </g>
  </g>
</svg>
